<?xml version="1.0" encoding="UTF-8"?>
<svg version="1.1" xmlns="http://www.w3.org/2000/svg" width="512" height="575">
<path d="M0 0 C0.80824219 -0.01998047 1.61648438 -0.03996094 2.44921875 -0.06054688 C14.15729733 -0.05132792 23.96438224 5.05761261 33.875 10.8125 C34.95209229 11.42681885 36.02918457 12.0411377 37.13891602 12.67407227 C40.47521014 14.58236733 43.801478 16.50705921 47.125 18.4375 C48.13739746 19.02418457 49.14979492 19.61086914 50.19287109 20.21533203 C55.14740639 23.08982444 60.0938265 25.97787286 65.03515625 28.875 C71.34070419 32.5696331 77.66794436 36.22602681 84 39.875 C85.08015381 40.49753662 86.16030762 41.12007324 87.27319336 41.76147461 C89.46296334 43.02326826 91.65282355 44.28490534 93.84277344 45.54638672 C100.35371257 49.29778024 106.86163194 53.05440994 113.37011719 56.81005859 C118.81085336 59.94932246 124.25231477 63.08731497 129.6953125 66.22265625 C141.1794882 72.83972892 152.64696894 79.48383977 164.09082031 86.17041016 C171.38122529 90.42732804 178.68644961 94.6579809 186 98.875 C187.06935791 99.49181641 188.13871582 100.10863281 189.24047852 100.74414062 C194.28823471 103.65431308 199.3379692 106.56096143 204.3927002 109.45899963 C206.14980482 110.46671959 207.90629524 111.4755018 209.66259766 112.48461914 C211.85245055 113.7424558 214.04344441 114.9983092 216.23583984 116.25170898 C234.20595815 126.58113724 249.56899217 135.91003066 255.31211853 157.01734924 C257.31116433 166.47160892 256.67811457 176.42188608 256.64257812 186.02929688 C256.64800607 188.50122997 256.65513248 190.97315982 256.66381836 193.44508362 C256.68009424 199.43307854 256.67780925 205.42079462 256.6661678 211.40877831 C256.65709352 216.28009883 256.65592662 221.15136325 256.66026306 226.02268982 C256.66087599 226.71891723 256.66148893 227.41514465 256.66212043 228.13246986 C256.66339948 229.54732916 256.66469633 230.96218845 256.6660108 232.37704772 C256.67738693 245.60992714 256.66434969 258.84269529 256.64280933 272.07555646 C256.62494103 283.40280294 256.62804597 294.72988538 256.64648438 306.05712891 C256.66794376 319.24621605 256.67628857 332.43520594 256.66403532 345.62430811 C256.66276127 347.03364212 256.66150379 348.44297614 256.66026306 349.85231018 C256.65964596 350.54553028 256.65902886 351.23875038 256.65839306 351.95297715 C256.65495531 356.81221687 256.66073427 361.67139432 256.67018127 366.53062439 C256.68264325 373.08401879 256.67363161 379.63715333 256.65060425 386.19053459 C256.64534121 388.58737109 256.64678939 390.98423377 256.65565491 393.38105965 C256.71574766 411.28596836 256.21615832 428.02451668 242.94580078 441.67993164 C237.06600838 447.04546882 231.0688706 451.19916384 224.125 455.0625 C223.09101074 455.65168213 222.05702148 456.24086426 220.99169922 456.84790039 C218.8092971 458.09126292 216.62418989 459.32988831 214.43652344 460.56396484 C210.10155865 463.01652454 205.79105384 465.51028607 201.48046875 468.00537109 C198.22106857 469.89174402 194.95866254 471.77281322 191.6953125 473.65234375 C185.17013757 477.41105381 178.6473655 481.1739175 172.125 484.9375 C169.95834417 486.18751879 167.7916775 487.43751878 165.625 488.6875 C164.5525 489.30625 163.48 489.925 162.375 490.5625 C100.625 526.1875 100.625 526.1875 97.37451172 528.06274414 C95.20942929 529.31185518 93.04439018 530.56104129 90.87939453 531.81030273 C85.43884294 534.94952309 79.99752784 538.08740563 74.5546875 541.22265625 C72.36978212 542.48175427 70.18488625 543.74086878 68 545 C66.93104492 545.61552734 65.86208984 546.23105469 64.76074219 546.86523438 C59.37639017 549.96951977 54.00321569 553.09103318 48.6484375 556.24609375 C15.46480185 575.78946965 15.46480185 575.78946965 0.4375 575.8125 C-0.38427734 575.83699219 -1.20605469 575.86148438 -2.05273438 575.88671875 C-14.0336168 575.94240062 -23.924669 570.69685146 -34.0625 564.8125 C-35.15763916 564.18786865 -36.25277832 563.5632373 -37.38110352 562.91967773 C-40.55340022 561.10517158 -43.71629642 559.27554773 -46.875 557.4375 C-47.66068359 556.98036621 -48.44636719 556.52323242 -49.25585938 556.05224609 C-52.62640905 554.08452733 -55.98698968 552.10050425 -59.34375 550.109375 C-64.97367855 546.77748092 -70.6441917 543.51602327 -76.3125 540.25 C-77.41972412 539.61199463 -78.52694824 538.97398926 -79.66772461 538.31665039 C-81.93837068 537.00860523 -84.20912358 535.70074552 -86.47998047 534.39306641 C-91.94669975 531.24417949 -97.41077646 528.0907151 -102.875 524.9375 C-109.39732439 521.17384635 -115.92013763 517.41105377 -122.4453125 513.65234375 C-133.9294882 507.03527108 -145.39696894 500.39116023 -156.84082031 493.70458984 C-169.62219295 486.24145797 -182.45251437 478.86309996 -195.27880859 471.47753906 C-200.82565568 468.28325196 -206.37051997 465.08568452 -211.91015625 461.87890625 C-215.57234829 459.75985444 -219.24430629 457.66132131 -222.93359375 455.58984375 C-237.07634832 447.5923719 -248.77343127 438.70082263 -254.03895569 422.61418152 C-256.96758864 411.86362418 -256.42506449 400.8587445 -256.37670898 389.7980957 C-256.38049737 387.32129612 -256.38600168 384.84449866 -256.39308167 382.3677063 C-256.40554392 376.36867848 -256.39951947 370.36993645 -256.38440608 364.37093655 C-256.36745115 357.37175208 -256.37076799 350.37261906 -256.37450016 343.37342038 C-256.38036349 330.87968232 -256.36626566 318.3860454 -256.34155273 305.89233398 C-256.31762099 293.79203504 -256.31055645 281.6918711 -256.32104492 269.59155273 C-256.33247294 256.38382296 -256.33436216 243.17615545 -256.31994683 229.96842641 C-256.31842113 228.55830364 -256.31690077 227.14818087 -256.31538582 225.73805809 C-256.314628 225.04441585 -256.31387019 224.35077362 -256.31308941 223.63611192 C-256.30836233 218.76646029 -256.31018667 213.89683663 -256.31445122 209.02718544 C-256.31991287 202.46644336 -256.30906379 195.90586009 -256.28749657 189.34514236 C-256.28194744 186.94220927 -256.28144611 184.53925822 -256.28644943 182.13632393 C-256.29243675 178.84766177 -256.27983086 175.55956196 -256.26268005 172.27095032 C-256.2686901 171.32813133 -256.27470014 170.38531234 -256.28089231 169.41392308 C-256.14919559 155.4551146 -251.1707002 142.94762221 -241.5234375 132.84765625 C-236.46214635 128.241732 -230.76658774 124.85059024 -224.875 121.4375 C-223.90062988 120.87289062 -222.92625977 120.30828125 -221.92236328 119.7265625 C-215.42291265 115.97534537 -208.9021536 112.26272186 -202.37388611 108.56199646 C-196.14817068 105.03039351 -189.94712814 101.45650617 -183.75 97.875 C-182.68620117 97.26060059 -181.62240234 96.64620117 -180.52636719 96.01318359 C-178.38172653 94.77444071 -176.23719494 93.53550896 -174.09277344 92.29638672 C-168.68829351 89.17425393 -163.28149893 86.05613474 -157.875 82.9375 C-156.80378906 82.31939453 -155.73257813 81.70128906 -154.62890625 81.06445312 C-149.18853925 77.92527626 -143.74737045 74.78750371 -138.3046875 71.65234375 C-127.85293801 65.63002671 -117.41200452 59.59080663 -107 53.5 C-97.73105624 48.07890468 -88.41930728 42.73571127 -79.08956909 37.42028809 C-70.88530728 32.74515063 -62.71098401 28.0218816 -54.5625 23.25 C-51.65078208 21.5505679 -48.73812862 19.85275969 -45.82470703 18.15625 C-43.80365416 16.97861284 -41.78385838 15.79881638 -39.76513672 14.6171875 C-36.68287656 12.81732755 -33.59254979 11.03210909 -30.5 9.25 C-29.57920654 8.70899658 -28.65841309 8.16799316 -27.7097168 7.6105957 C-18.65040192 2.42544437 -10.45163396 -0.09081199 0 0 Z " fill="#E3E9EA" transform="translate(255.875,-0.4375)"/>
<path d="M0 0 C4.50244174 19.01265827 8.82641838 38.06257789 13.0887146 57.13037109 C16.0318466 70.29394723 19.01514973 83.44648706 22.07647705 96.58306885 C25.52387268 111.38036343 28.81886541 126.20560384 32 141.0625 C32.19603821 141.97675751 32.39207642 142.89101501 32.59405518 143.83297729 C33.14806597 146.42077621 33.69966483 149.0090734 34.25 151.59765625 C34.41309662 152.36143585 34.57619324 153.12521545 34.74423218 153.91213989 C35.59372061 157.92942872 36.33791658 161.94812754 37 166 C36.29708108 166.00238835 35.59416216 166.00477671 34.86994267 166.00723743 C17.74233133 166.06645184 0.61487003 166.142043 -16.51258755 166.23571491 C-24.79540672 166.28062232 -33.07818339 166.32004857 -41.36108398 166.34643555 C-48.58302201 166.36945666 -55.80482494 166.40290041 -63.02665573 166.44870156 C-66.84825471 166.47257852 -70.66972035 166.4913434 -74.49139214 166.49761391 C-78.09396114 166.50368994 -81.69618922 166.52377966 -85.29863167 166.55427551 C-87.23990021 166.56715969 -89.18124856 166.56549271 -91.12255859 166.5632782 C-101.90477521 166.67847727 -110.69513563 168.83901318 -119 176 C-129.32007334 187.76488361 -129.58516728 201.06521234 -129.51757812 215.86083984 C-129.52300575 217.86105355 -129.53013198 219.86126325 -129.53881836 221.86146545 C-129.55698077 227.26863989 -129.55001281 232.67550742 -129.53730202 238.0826869 C-129.52713478 243.75806438 -129.53657827 249.43341659 -129.54284668 255.10879517 C-129.55011344 264.63963509 -129.54056209 274.17035083 -129.52148438 283.70117188 C-129.49973009 294.69560473 -129.50676055 305.68974068 -129.52879 316.68416631 C-129.5469866 326.14695907 -129.54948114 335.60966283 -129.53903532 345.07246745 C-129.53282218 350.71388206 -129.53190427 356.35515748 -129.54518127 361.99656296 C-129.5568008 367.30402593 -129.54860311 372.61110914 -129.52560425 377.91853142 C-129.52034908 379.85781794 -129.52177567 381.79713683 -129.53065491 383.73641014 C-129.58705836 397.3151194 -129.29377972 410.18520717 -119.99609375 421.0625 C-113.7565043 427.11893125 -106.81967898 431.24180284 -98.01467037 431.26285553 C-96.80686065 431.27053782 -95.59905092 431.27822011 -94.3546409 431.2861352 C-93.01775333 431.28457482 -91.68086597 431.28281727 -90.34397888 431.28088379 C-88.92103172 431.28605292 -87.49808746 431.29207975 -86.07514721 431.29889059 C-82.1646521 431.31501621 -78.25423044 431.31860892 -74.34370601 431.32008553 C-70.12605439 431.32378923 -65.90844078 431.33888537 -61.69081116 431.35235596 C-52.46746046 431.3795148 -43.24412716 431.3915712 -34.02074313 431.40037727 C-28.25979224 431.40590422 -22.49884805 431.41437939 -16.73790169 431.42338562 C-0.78283707 431.44777141 15.17222218 431.468369 31.12730503 431.4751358 C32.65895375 431.4757945 32.65895375 431.4757945 34.22154486 431.47646651 C35.75683385 431.47712134 35.75683385 431.47712134 37.32313877 431.4777894 C39.39714786 431.47867633 41.47115694 431.47956946 43.54516602 431.48046875 C44.57394349 431.48091161 45.60272097 431.48135447 46.66267353 431.48181075 C63.32503498 431.48970336 79.98722132 431.52460086 96.64951516 431.57118779 C113.76264617 431.61864832 130.87568938 431.64354107 147.98888725 431.64587164 C157.59478061 431.64770345 167.20044589 431.65916476 176.80627632 431.69551086 C184.98770043 431.72635845 193.16882599 431.73652733 201.35029722 431.72003466 C205.52206756 431.71223699 209.69323714 431.71400324 213.86493301 431.74214935 C217.6905355 431.76772343 221.51508883 431.76515177 225.34069084 431.74096793 C227.36664848 431.7352356 229.39262505 431.75885491 231.41843706 431.78381205 C242.20272285 431.66788536 250.69064723 428.5987649 258.4375 420.9375 C267.73936125 409.2453816 267.72300272 396.81010867 267.63110352 382.60498047 C267.63625057 380.57166929 267.64353775 378.53836258 267.65278625 376.50506592 C267.67120575 371.01749876 267.6584224 365.53042122 267.63869596 360.04287481 C267.62223432 354.28249446 267.63113257 348.52214329 267.63621521 342.76174927 C267.64072705 333.09320308 267.62492089 323.42485092 267.59692383 313.75634766 C267.56485807 302.59709565 267.56489778 291.43819312 267.5821386 280.27891624 C267.59803016 269.51633526 267.59125434 258.75388174 267.57420158 247.9913063 C267.56735037 243.42298084 267.56834364 238.85475813 267.57574654 234.28643417 C267.58343661 228.90342548 267.5711944 223.52081218 267.54389763 218.13787079 C267.53704194 216.16872201 267.5368854 214.19953609 267.54411316 212.23038864 C267.58740606 198.89380109 266.98422729 187.71857275 258.05859375 177.0078125 C251.51313827 170.62381987 243.19436422 166.7715539 234.03945923 166.7215271 C232.87005798 166.71036362 231.70065674 166.69920013 230.49581909 166.68769836 C229.22698883 166.68553818 227.95815857 166.68337799 226.65087891 166.68115234 C225.29039926 166.67184616 223.92992529 166.66167646 222.56945801 166.65071106 C218.88812454 166.62347471 215.2068292 166.60828062 211.52542162 166.59528303 C207.6736722 166.57962455 203.82200032 166.55284302 199.9703064 166.5272522 C192.68192938 166.48051244 185.39353769 166.44374513 178.10508764 166.41057932 C169.80517936 166.37232395 161.50534905 166.32292275 153.20550656 166.27259517 C136.13706083 166.16934678 119.06856991 166.08006337 102 166 C103.78179064 155.28652777 105.87761712 144.70643158 108.38188362 134.13908577 C109.38050873 129.92076943 110.36119039 125.69826967 111.34326172 121.47607422 C111.55507741 120.5664861 111.7668931 119.65689798 111.98512745 118.71974659 C114.69606694 107.04883819 117.30166455 95.35430349 119.91015625 83.66015625 C120.16135601 82.53463726 120.41255577 81.40911827 120.67136765 80.24949265 C122.20917106 73.35842156 123.74489726 66.46688911 125.27990723 59.57519531 C126.60676349 53.61955409 127.93530117 47.66428795 129.26367188 41.70898438 C131.84403738 30.1396769 134.42262973 18.56997508 137 7 C138.74652147 7.95243579 140.49301709 8.90491897 142.23950195 9.85742188 C143.2120845 10.38783081 144.18466705 10.91823975 145.1867218 11.46472168 C158.13822227 18.53268883 170.93177849 25.84112311 183.6640625 33.296875 C190.05281992 37.03634589 196.46116076 40.74125034 202.875 44.4375 C203.95458984 45.05971436 205.03417969 45.68192871 206.14648438 46.32299805 C208.3368252 47.58511517 210.52725502 48.84707785 212.71777344 50.10888672 C218.14659942 53.23680148 223.57319281 56.36858448 229 59.5 C231.16665583 60.75001879 233.3333225 62.00001878 235.5 63.25 C239.83333333 65.75 244.16666667 68.25 248.5 70.75 C249.57378906 71.36931396 250.64757812 71.98862793 251.75390625 72.62670898 C253.90818185 73.86992173 256.06183399 75.11421548 258.21484375 76.35961914 C263.22677405 79.25704642 268.24364214 82.14426787 273.28442383 84.99118042 C275.05186113 85.99008099 276.81722666 86.99255028 278.58203125 87.99609375 C280.78375019 89.24667011 282.98921437 90.49068704 285.19921875 91.7265625 C300.74561553 100.58462469 311.66739396 110.53743174 317 128 C318.33014539 132.98916102 318.14815484 137.98748301 318.14717102 143.11192322 C318.15084771 144.13945617 318.1545244 145.16698912 318.1583125 146.22565943 C318.16933822 149.6738008 318.17319134 153.12191201 318.17700195 156.57006836 C318.18326754 159.04067073 318.18991443 161.51127216 318.19691467 163.98187256 C318.2161331 171.40001696 318.22674255 178.81815336 318.23564246 186.23631534 C318.24003097 189.73464267 318.24539639 193.23296849 318.25063133 196.73129463 C318.26764229 208.36972584 318.28213403 220.00815613 318.28938007 231.64659786 C318.29128979 234.66487059 318.29321015 237.68314331 318.29516602 240.70141602 C318.29564976 241.4515417 318.2961335 242.20166738 318.2966319 242.97452415 C318.30492312 255.11216562 318.33024523 267.24970826 318.36274669 279.38730662 C318.39588511 291.86513141 318.41383503 304.34290609 318.41702431 316.82077509 C318.41918337 323.81992478 318.42784276 330.81893041 318.45348549 337.81803703 C318.47757495 344.40820953 318.48097576 350.99817047 318.47072411 357.58839417 C318.47023003 359.99975 318.47651244 362.4111188 318.49028015 364.82243538 C318.58702351 382.7793645 318.13489494 399.54201098 304.82080078 413.24243164 C298.94100838 418.60796882 292.9438706 422.76166384 286 426.625 C284.96601074 427.21418213 283.93202148 427.80336426 282.86669922 428.41040039 C280.6842971 429.65376292 278.49918989 430.89238831 276.31152344 432.12646484 C271.97655865 434.57902454 267.66605384 437.07278607 263.35546875 439.56787109 C260.09606857 441.45424402 256.83366254 443.33531322 253.5703125 445.21484375 C247.04513757 448.97355381 240.5223655 452.7364175 234 456.5 C231.83334417 457.75001879 229.6666775 459.00001878 227.5 460.25 C226.4275 460.86875 225.355 461.4875 224.25 462.125 C162.49999999 497.75 162.49999999 497.75 159.24951172 499.62524414 C157.08442929 500.87435518 154.91939018 502.12354129 152.75439453 503.37280273 C147.31384294 506.51202309 141.87252784 509.64990563 136.4296875 512.78515625 C134.24478212 514.04425427 132.05988625 515.30336878 129.875 516.5625 C128.80604492 517.17802734 127.73708984 517.79355469 126.63574219 518.42773438 C121.25139017 521.53201977 115.87821569 524.65353318 110.5234375 527.80859375 C77.33980185 547.35196965 77.33980185 547.35196965 62.3125 547.375 C61.49072266 547.39949219 60.66894531 547.42398438 59.82226562 547.44921875 C47.8413832 547.50490062 37.950331 542.25935146 27.8125 536.375 C26.71736084 535.75036865 25.62222168 535.1257373 24.49389648 534.48217773 C21.32159978 532.66767158 18.15870358 530.83804773 15 529 C14.21431641 528.54286621 13.42863281 528.08573242 12.61914062 527.61474609 C9.24859095 525.64702733 5.88801032 523.66300425 2.53125 521.671875 C-3.09867855 518.33998092 -8.7691917 515.07852327 -14.4375 511.8125 C-15.54472412 511.17449463 -16.65194824 510.53648926 -17.79272461 509.87915039 C-20.06337068 508.57110523 -22.33412358 507.26324552 -24.60498047 505.95556641 C-30.07169975 502.80667949 -35.53577646 499.6532151 -41 496.5 C-47.52232439 492.73634635 -54.04513763 488.97355377 -60.5703125 485.21484375 C-72.0544882 478.59777108 -83.52196894 471.95366023 -94.96582031 465.26708984 C-107.74719295 457.80395797 -120.57751437 450.42559996 -133.40380859 443.04003906 C-138.95065568 439.84575196 -144.49551997 436.64818452 -150.03515625 433.44140625 C-153.69734829 431.32235444 -157.36930629 429.22382131 -161.05859375 427.15234375 C-175.20134832 419.1548719 -186.89843127 410.26332263 -192.16395569 394.17668152 C-195.09258864 383.42612418 -194.55006449 372.4212445 -194.50170898 361.3605957 C-194.50549737 358.88379612 -194.51100168 356.40699866 -194.51808167 353.9302063 C-194.53054392 347.93117848 -194.52451947 341.93243645 -194.50940608 335.93343655 C-194.49245115 328.93425208 -194.49576799 321.93511906 -194.49950016 314.93592038 C-194.50536349 302.44218232 -194.49126566 289.9485454 -194.46655273 277.45483398 C-194.44262099 265.35453504 -194.43555645 253.2543711 -194.44604492 241.15405273 C-194.45747294 227.94632296 -194.45936216 214.73865545 -194.44494683 201.53092641 C-194.44342113 200.12080364 -194.44190077 198.71068087 -194.44038582 197.30055809 C-194.439628 196.60691585 -194.43887019 195.91327362 -194.43808941 195.19861192 C-194.43336233 190.32896029 -194.43518667 185.45933663 -194.43945122 180.58968544 C-194.44491287 174.02894336 -194.43406379 167.46836009 -194.41249657 160.90764236 C-194.40694744 158.50470927 -194.40644611 156.10175822 -194.41144943 153.69882393 C-194.41743675 150.41016177 -194.40483086 147.12206196 -194.38768005 143.83345032 C-194.3936901 142.89063133 -194.39970014 141.94781234 -194.40589231 140.97642308 C-194.27419559 127.0176146 -189.2957002 114.51012221 -179.6484375 104.41015625 C-174.58714635 99.804232 -168.89158774 96.41309024 -163 93 C-162.02562988 92.43539062 -161.05125977 91.87078125 -160.04736328 91.2890625 C-153.54791265 87.53784537 -147.0271536 83.82522186 -140.49888611 80.12449646 C-134.27317068 76.59289351 -128.07212814 73.01900617 -121.875 69.4375 C-120.81120117 68.82310059 -119.74740234 68.20870117 -118.65136719 67.57568359 C-116.50672653 66.33694071 -114.36219494 65.09800896 -112.21777344 63.85888672 C-106.81329351 60.73675393 -101.40649893 57.61863474 -96 54.5 C-94.92878906 53.88189453 -93.85757813 53.26378906 -92.75390625 52.62695312 C-87.31353925 49.48777626 -81.87237045 46.35000371 -76.4296875 43.21484375 C-65.00756763 36.63339754 -53.60350949 30.02310979 -42.2253418 23.3659668 C-32.85479401 17.89418771 -23.43185599 12.51519717 -13.99853516 7.15258789 C-12.86851074 6.50926514 -11.73848633 5.86594238 -10.57421875 5.203125 C-9.06734497 4.34702637 -9.06734497 4.34702637 -7.5300293 3.47363281 C-1.56626905 0 -1.56626905 0 0 0 Z " fill="#FEC42E" transform="translate(194,28)"/>
<path d="M0 0 C1.22154785 -0.03395874 1.22154785 -0.03395874 2.46777344 -0.06860352 C14.1747092 -0.02100491 23.9596692 5.05425514 33.875 10.8125 C34.93614014 11.41811768 35.99728027 12.02373535 37.09057617 12.64770508 C40.44232343 14.56584839 43.78418156 16.5003949 47.125 18.4375 C49.39709364 19.74616629 51.66922871 21.05476065 53.94140625 22.36328125 C56.10746666 23.61598512 58.27285574 24.86985066 60.4375 26.125 C61.95778809 27.00647705 61.95778809 27.00647705 63.50878906 27.90576172 C64.45077148 28.45635254 65.39275391 29.00694336 66.36328125 29.57421875 C67.18868408 30.05592529 68.01408691 30.53763184 68.86450195 31.03393555 C69.98344849 31.72869995 69.98344849 31.72869995 71.125 32.4375 C71.90383545 32.80593018 72.6826709 33.17436035 73.48510742 33.55395508 C75.125 35.4375 75.125 35.4375 75.1331377 37.27266788 C74.42525447 42.74367118 73.44990844 48.09086122 72.2265625 53.46923828 C72.03604813 54.32474274 71.84553375 55.18024719 71.64924622 56.06167603 C71.02079869 58.87811441 70.38548597 61.69295462 69.75 64.5078125 C69.30177997 66.50893689 68.85395268 68.51014929 68.40649414 70.51144409 C67.46450224 74.72004066 66.5194008 78.92792183 65.57177734 83.13525391 C64.3856601 88.40149874 63.2045663 93.66885114 62.02557373 98.9366951 C58.23860491 115.85530657 54.4463145 132.77267896 50.53515625 149.66308594 C50.3294249 150.55174536 50.12369354 151.44040478 49.91172791 152.35599327 C48.95498332 156.48473771 47.99484999 160.6126522 47.02905273 164.73928833 C45.10504061 172.99076427 43.32282431 181.24815242 41.73828125 189.572052 C41.125 192.4375 41.125 192.4375 40.125 194.4375 C40.82515354 194.43289104 41.52530708 194.42828207 42.2466774 194.42353344 C59.32510581 194.31285405 76.40344249 194.23024656 93.48215103 194.17843914 C101.74148737 194.15271605 110.00058351 194.11767925 118.25976562 194.06030273 C125.46297557 194.01028614 132.66601146 193.97816618 139.86939025 193.96705753 C143.67954684 193.9605694 147.48920574 193.94544595 151.29920197 193.90884972 C154.89442057 193.87460029 158.48894236 193.86450428 162.08430862 193.87196159 C164.01439616 193.8699565 165.94440995 193.84321409 167.8742981 193.81539917 C178.74739236 193.87885972 188.38087611 196.77358778 196.375 204.41796875 C208.69196641 218.63196794 206.125 231.76558008 206.125 251.4375 C74.785 251.4375 -56.555 251.4375 -191.875 251.4375 C-191.875 216.20355505 -191.875 216.20355505 -181.875 204.4375 C-174.52978167 197.72397045 -167.00214929 194.30817593 -157.03471375 194.31724548 C-155.86668716 194.31587082 -154.69866058 194.31449615 -153.49523926 194.31307983 C-151.58660095 194.31847275 -151.58660095 194.31847275 -149.6394043 194.32397461 C-148.27907819 194.32425684 -146.91875192 194.32409805 -145.5584259 194.3235321 C-141.87287572 194.32324552 -138.18735817 194.32911984 -134.50181556 194.33610606 C-130.64743704 194.34236268 -126.79305774 194.34294523 -122.93867493 194.34413147 C-115.64314497 194.34723798 -108.34763003 194.3554422 -101.05210668 194.36548096 C-92.74501663 194.37666322 -84.43792587 194.38215787 -76.13083017 194.38717639 C-59.04554477 194.39762537 -41.96027397 194.41521165 -24.875 194.4375 C-25.13923264 193.46603531 -25.40346527 192.49457062 -25.67570496 191.4936676 C-27.61898758 184.30716827 -29.48254328 177.13300248 -30.98828125 169.83984375 C-31.16578415 168.99998428 -31.34328705 168.16012482 -31.52616882 167.29481506 C-32.08369871 164.65564912 -32.63620808 162.01547541 -33.1875 159.375 C-35.95677213 146.12883826 -38.90170619 132.93585315 -41.99801636 119.76210022 C-45.65736657 104.17257363 -49.16555861 88.5491345 -52.66625977 72.92333984 C-53.63634774 68.59440798 -54.61172503 64.26668398 -55.58811092 59.93916893 C-56.34843121 56.56498142 -57.10498136 53.18995686 -57.86047554 49.81468582 C-58.21909004 48.2155854 -58.57911932 46.61680155 -58.94062614 45.01835251 C-59.43960497 42.8104741 -59.93323203 40.60146444 -60.42553711 38.39208984 C-60.70642685 37.1413266 -60.98731659 35.89056335 -61.27671814 34.60189819 C-61.875 31.4375 -61.875 31.4375 -61.875 27.4375 C-54.88625457 23.39353158 -47.89331312 19.35704893 -40.89379883 15.33175659 C-37.56634167 13.41670792 -34.24786545 11.48738621 -30.9375 9.54296875 C-20.44853016 3.41750771 -12.21538265 0.23612791 0 0 Z " fill="#72CE7A" transform="translate(255.875,-0.4375)"/>
<path d="M0 0 C1.16802658 -0.00137466 2.33605316 -0.00274933 3.53947449 -0.00416565 C4.81190002 -0.00057037 6.08432556 0.0030249 7.39530945 0.00672913 C8.75563556 0.00701135 10.11596182 0.00685257 11.47628784 0.00628662 C15.16183803 0.00600004 18.84735558 0.01187436 22.53289819 0.01886058 C26.38727671 0.02511719 30.241656 0.02569974 34.09603882 0.02688599 C41.39156877 0.02999249 48.68708372 0.03819672 55.98260707 0.04823548 C64.28969711 0.05941774 72.59678788 0.06491239 80.90388358 0.06993091 C97.98916898 0.08037989 115.07443977 0.09796616 132.15971375 0.12025452 C132.814887 2.50590694 133.46520429 4.89271116 134.11283875 7.28041077 C134.29733582 7.95028015 134.48183289 8.62014954 134.67192078 9.31031799 C136.01301396 14.27570034 136.8003859 18.99983272 137.15971375 24.12025452 C136.40762634 24.14531067 135.65553894 24.17036682 134.88066101 24.19618225 C131.49432179 24.31175965 128.10828761 24.43465796 124.72221375 24.55775452 C123.53820984 24.59707092 122.35420593 24.63638733 121.13432312 24.67689514 C120.00961609 24.71878967 118.88490906 24.7606842 117.72612 24.80384827 C116.68399353 24.84050598 115.64186707 24.8771637 114.56816101 24.91493225 C112.20973114 24.85540793 112.20973114 24.85540793 111.15971375 26.12025452 C110.99304708 28.62025452 110.99304708 28.62025452 111.15971375 31.12025452 C112.69397181 32.65451258 114.08284995 32.24618375 116.22148132 32.24723816 C117.09648285 32.25005798 117.97148437 32.25287781 118.8730011 32.25578308 C119.84031158 32.25375885 120.80762207 32.25173462 121.804245 32.24964905 C123.3236116 32.25227753 123.3236116 32.25227753 124.87367249 32.25495911 C128.23987006 32.25937974 131.60601559 32.25643889 134.97221375 32.25306702 C137.30009471 32.25374 139.6279756 32.25470997 141.95585632 32.25596619 C146.84184944 32.25744345 151.72782431 32.2552877 156.61381531 32.25062561 C162.89244031 32.24492831 169.17102257 32.24820717 175.449646 32.25419807 C180.25871607 32.25780293 185.06777594 32.25666545 189.87684631 32.25407028 C192.19262192 32.2534008 194.50839843 32.25423016 196.82417297 32.25654984 C200.05453466 32.25907512 203.28482607 32.25523751 206.5151825 32.24964905 C207.96614822 32.25268539 207.96614822 32.25268539 209.44642639 32.25578308 C210.75892868 32.25155334 210.75892868 32.25155334 212.09794617 32.24723816 C212.86265732 32.24686113 213.62736847 32.24648411 214.41525269 32.24609566 C216.18868418 32.30941653 216.18868418 32.30941653 217.15971375 31.12025452 C217.32638041 28.62025452 217.32638041 28.62025452 217.15971375 26.12025452 C215.41464759 24.37518836 212.96932231 24.88742668 210.5933075 24.80384827 C209.46860046 24.76195374 208.34389343 24.7200592 207.18510437 24.67689514 C206.00110046 24.63757874 204.81709656 24.59826233 203.59721375 24.55775452 C202.40934265 24.51457092 201.22147156 24.47138733 199.99760437 24.42689514 C197.0517659 24.32041905 194.10583945 24.21840611 191.15971375 24.12025452 C190.48505303 21.2469227 189.81979034 18.3719397 189.15971375 15.49525452 C188.9689325 14.68701233 188.77815125 13.87877014 188.58158875 13.04603577 C188.40112 12.25326233 188.22065125 11.46048889 188.03471375 10.64369202 C187.86713562 9.92101135 187.6995575 9.19833069 187.52690125 8.45375061 C187.08635006 5.65402442 187.13695558 2.95065043 187.15971375 0.12025452 C206.24919828 0.00320804 225.33860951 -0.08483771 244.42837906 -0.13880634 C253.29304789 -0.16453627 262.15749315 -0.19958647 271.02201843 -0.25694275 C278.75260537 -0.30693804 286.48303031 -0.33907434 294.21377444 -0.35018796 C298.30337261 -0.3566796 302.3925075 -0.37182634 306.48195648 -0.40839577 C310.33981093 -0.4426111 314.19701615 -0.45274776 318.05500793 -0.44528389 C319.46260368 -0.44664715 320.87022362 -0.45642708 322.27768707 -0.47577286 C334.16603641 -0.63101327 344.59042004 1.66727366 353.40971375 10.10072327 C365.72668016 24.31472245 363.15971375 37.4483346 363.15971375 57.12025452 C231.81971375 57.12025452 100.47971375 57.12025452 -34.84028625 57.12025452 C-34.84028625 21.88630956 -34.84028625 21.88630956 -24.84028625 10.12025452 C-17.49506793 3.40672497 -9.96743554 -0.00906955 0 0 Z " fill="#54B4EC" transform="translate(98.84028625488281,193.87974548339844)"/>
<path d="M0 0 C1.61068359 0.66902344 1.61068359 0.66902344 3.25390625 1.3515625 C21.46153929 9.67638067 34.25257863 25.24834244 41.375 43.6875 C48.01439112 63.87007391 45.588974 83.51849304 36.33984375 102.38671875 C35.89769531 103.24910156 35.45554688 104.11148438 35 105 C34.01 105 33.02 105 32 105 C30.45703125 103.42578125 30.45703125 103.42578125 28.8125 101.3125 C23.2884173 94.741749 18.27018925 92.36291121 10 90 C4.39 89.67 -1.22 89.34 -7 89 C-7 104.84 -7 120.68 -7 137 C-14.875 139.25 -14.875 139.25 -19 139 C-19.17088135 137.78207764 -19.17088135 137.78207764 -19.34521484 136.53955078 C-20.28839066 129.87162624 -21.26363233 123.21039215 -22.2890625 116.5546875 C-22.39829041 115.84387024 -22.50751831 115.13305298 -22.62005615 114.4006958 C-23.06949834 111.47746847 -23.51941905 108.55432617 -23.97363281 105.63183594 C-24.31064878 103.46069365 -24.64391432 101.28900268 -24.9765625 99.1171875 C-25.17330566 97.84472168 -25.37004883 96.57225586 -25.57275391 95.26123047 C-26 92 -26 92 -26 88 C-24.21118264 86.99491199 -22.41885304 85.99607264 -20.625 85 C-19.62726563 84.443125 -18.62953125 83.88625 -17.6015625 83.3125 C-15 82 -15 82 -13 82 C-13.13019531 81.29875 -13.26039063 80.5975 -13.39453125 79.875 C-14.6601101 71.16970999 -14.6601101 71.16970999 -11.75 67 C-11.28335938 66.37996094 -10.81671875 65.75992188 -10.3359375 65.12109375 C-8.21613759 61.75544652 -7.59040678 58.07938785 -6.7734375 54.22265625 C-6.51820313 53.48917969 -6.26296875 52.75570312 -6 52 C-5.01 51.67 -4.02 51.34 -3 51 C0.17319468 46.29897085 1.0322378 41.54148716 0 36 C-1.82271927 33.87644433 -1.82271927 33.87644433 -4 33 C-3.05125 32.278125 -2.1025 31.55625 -1.125 30.8125 C1.67412562 28.50190102 2.98517558 26.55188548 4 23 C3.2471875 22.92136719 2.494375 22.84273438 1.71875 22.76171875 C-1.67065718 21.81210036 -2.48558427 20.64883535 -4.5 17.8125 C-5.09683594 17.00167969 -5.69367188 16.19085938 -6.30859375 15.35546875 C-7.14583984 14.18951172 -7.14583984 14.18951172 -8 13 C-11.1424545 8.74630071 -13.86465328 5.74408002 -19 4 C-25.85646179 3.08050761 -30.39734038 3.94701219 -36 8 C-36.33 8.66 -36.66 9.32 -37 10 C-39.109375 10.45703125 -39.109375 10.45703125 -41.75 10.8125 C-46.57569148 11.67546343 -48.92586911 13.0333795 -52 17 C-54.44433951 21.88867901 -53.05609621 28.85153098 -52 34 C-53.32 34.66 -54.64 35.32 -56 36 C-56.60599361 44.06113832 -56.60599361 44.06113832 -53 51 C-52.01 51.33 -51.02 51.66 -50 52 C-49.41015625 53.78515625 -49.41015625 53.78515625 -49.0625 56.0625 C-47.99398036 61.68345204 -46.09908534 66.90091466 -42 71 C-42.0234375 73.6015625 -42.0234375 73.6015625 -42.375 76.625 C-42.48585937 77.62789063 -42.59671875 78.63078125 -42.7109375 79.6640625 C-42.85402344 80.82035156 -42.85402344 80.82035156 -43 82 C-42.175 82.226875 -41.35 82.45375 -40.5 82.6875 C-36.26863382 84.27426232 -32.74828987 86.50748237 -29 89 C-29.31650513 89.57686554 -29.63301025 90.15373108 -29.95910645 90.74807739 C-30.98389278 92.9651528 -31.37814448 94.62131429 -31.65429688 97.03076172 C-31.74779419 97.81192352 -31.8412915 98.59308533 -31.93762207 99.3979187 C-32.03039429 100.2334024 -32.1231665 101.06888611 -32.21875 101.9296875 C-32.37386047 103.23161545 -32.37386047 103.23161545 -32.53210449 104.55984497 C-32.86182774 107.33078361 -33.18191488 110.1027029 -33.5 112.875 C-33.8184755 115.6400997 -34.13925213 118.40482101 -34.46789551 121.16873169 C-34.67209977 122.88650955 -34.87054779 124.60498453 -35.06237793 126.32418823 C-35.59176455 130.78286207 -36.38986888 134.77298031 -38 139 C-39.45880109 138.85892253 -40.91703551 138.71197585 -42.375 138.5625 C-43.59316406 138.44068359 -43.59316406 138.44068359 -44.8359375 138.31640625 C-47 138 -47 138 -49 137 C-49.33 121.49 -49.66 105.98 -50 90 C-66.13608459 90 -73.2042004 90.28706231 -85 100 C-86.38332804 101.62541044 -87.74462118 103.27385413 -89 105 C-89.66 105 -90.32 105 -91 105 C-100.97375151 86.50498507 -104.40299974 66.21035354 -98.32421875 45.8203125 C-94.84376396 35.29601645 -89.40071134 26.23291985 -82 18 C-81.48179688 17.38898438 -80.96359375 16.77796875 -80.4296875 16.1484375 C-60.72652203 -5.53494561 -26.34149701 -11.20032156 0 0 Z " fill="#FEFEFE" transform="translate(183,286)"/>
<path d="M0 0 C0.80179687 0.46148438 1.60359375 0.92296875 2.4296875 1.3984375 C8.48406296 4.87180936 14.55092427 8.31559 20.66479492 11.68334961 C23.70056646 13.35858415 26.72800977 15.04842491 29.75292969 16.74316406 C31.24876287 17.57981652 32.74681378 18.41251643 34.24707031 19.24121094 C36.36224314 20.41484526 38.46348605 21.61026103 40.5625 22.8125 C41.19986084 23.16111084 41.83722168 23.50972168 42.49389648 23.86889648 C46.75485289 26.35194238 46.75485289 26.35194238 47.78182983 29.06680298 C48.09396546 33.26332213 47.17734943 36.95745948 46.23681641 41.03662109 C46.03684052 41.9403093 45.83686462 42.8439975 45.63082886 43.77507019 C44.96401581 46.77676078 44.28287456 49.77500744 43.6015625 52.7734375 C43.12760907 54.89227864 42.65451062 57.01131118 42.18222046 59.13052368 C40.92875576 64.74329508 39.66300583 70.35322924 38.39489746 75.96270752 C37.14215116 81.5150531 35.90190079 87.07018582 34.66015625 92.625 C30.94389747 109.2272036 27.20715265 125.8246546 23.37011719 142.39941406 C23.16354429 143.2919243 22.9569714 144.18443455 22.74413872 145.10399055 C21.79111058 149.2176665 20.83469323 153.33050908 19.8722229 157.44198608 C17.95908839 165.6446687 16.19022645 173.8537874 14.61465454 182.12850952 C14 185 14 185 13 187 C9.37 187 5.74 187 2 187 C-3.18928205 164.25044375 -8.36488682 141.49846784 -13.3984375 118.71386719 C-13.55079865 118.02531647 -13.70315979 117.33676575 -13.86013794 116.62734985 C-14.29633268 114.65314936 -14.72999027 112.67838882 -15.16357422 110.70361328 C-15.71225129 108.27412373 -16.28601039 105.85013435 -16.88720703 103.43310547 C-19.68836809 92.11877227 -19.02764215 83.72082266 -16.5625 72.375 C-16.30170654 71.14313965 -16.04091309 69.9112793 -15.7722168 68.64208984 C-13.06956318 55.96325975 -10.12562023 43.3358911 -7.16040039 30.71630859 C-5.14356639 22.11085009 -3.25048321 13.50608083 -1.60229492 4.82177734 C-1 2 -1 2 0 0 Z " fill="#59B05F" transform="translate(283,7)"/>
<path d="M0 0 C6.71001459 3.76542566 10.65663675 10.06753807 14.94921875 16.25390625 C16.6985107 18.47214731 16.6985107 18.47214731 19.57421875 18.50390625 C20.31671875 18.40078125 21.05921875 18.29765625 21.82421875 18.19140625 C20.50628689 23.85851324 18.33712678 25.85577858 13.82421875 29.19140625 C14.48421875 29.50078125 15.14421875 29.81015625 15.82421875 30.12890625 C18.14630482 32.52355751 18.19218311 33.21203444 18.32421875 36.44140625 C18.13342782 41.29862545 16.53007156 44.21718493 13.82421875 48.19140625 C12.83421875 48.19140625 11.84421875 48.19140625 10.82421875 48.19140625 C10.73140625 50.14046875 10.73140625 50.14046875 10.63671875 52.12890625 C10.13899434 56.8461451 8.50655635 60.08541118 5.98046875 64.05078125 C3.43788335 68.75800017 3.82421875 72.77204102 3.82421875 78.19140625 C-0.46578125 80.50140625 -4.75578125 82.81140625 -9.17578125 85.19140625 C-8.72589844 87.33382812 -8.27601563 89.47625 -7.8125 91.68359375 C-6.28623649 99.18214325 -5.18478688 106.70157876 -4.24047852 114.29296875 C-3.9839507 116.35115126 -3.71809786 118.40798631 -3.45117188 120.46484375 C-2.77883808 125.74337674 -2.17578125 130.85660186 -2.17578125 136.19140625 C-8.11578125 136.19140625 -14.05578125 136.19140625 -20.17578125 136.19140625 C-19.75966102 125.16422026 -18.66989175 114.31367426 -17.23828125 103.37890625 C-17.15292114 102.70857361 -17.06756104 102.03824097 -16.97961426 101.34759521 C-16.73156687 99.41295567 -16.4714497 97.47987553 -16.2109375 95.546875 C-16.06019775 94.41918701 -15.90945801 93.29149902 -15.75415039 92.12963867 C-15.17578125 89.19140625 -15.17578125 89.19140625 -13.17578125 85.19140625 C-19.61078125 81.72640625 -19.61078125 81.72640625 -26.17578125 78.19140625 C-26.07265625 76.52078125 -25.96953125 74.85015625 -25.86328125 73.12890625 C-25.84039781 67.18683871 -27.46750004 64.58554511 -31.17578125 60.19140625 C-33.31307391 56.12037262 -33.35487334 52.75825457 -33.17578125 48.19140625 C-34.07296875 48.09859375 -34.07296875 48.09859375 -34.98828125 48.00390625 C-37.17578125 47.19140625 -37.17578125 47.19140625 -38.92578125 45.25390625 C-40.67575979 40.96645882 -40.80014247 36.77275808 -40.17578125 32.19140625 C-39.51578125 31.53140625 -38.85578125 30.87140625 -38.17578125 30.19140625 C-37.18578125 30.19140625 -36.19578125 30.19140625 -35.17578125 30.19140625 C-35.50578125 29.38703125 -35.83578125 28.58265625 -36.17578125 27.75390625 C-37.8017743 21.96130602 -38.22032957 17.28050289 -35.48828125 11.81640625 C-32.64655944 8.59066798 -30.51279219 6.38724516 -26.078125 6.015625 C-24.10983232 6.00521075 -22.14156189 6.0914513 -20.17578125 6.19140625 C-19.86640625 5.29421875 -19.86640625 5.29421875 -19.55078125 4.37890625 C-15.52889338 -2.01955173 -6.55325651 -2.43541131 0 0 Z " fill="#FDC47A" transform="translate(166.17578125,289.80859375)"/>
<path d="M0 0 C1.11826172 0.00322266 2.23652344 0.00644531 3.38867188 0.00976562 C4.55591797 0.01814453 5.72316406 0.02652344 6.92578125 0.03515625 C8.10462891 0.03966797 9.28347656 0.04417969 10.49804688 0.04882812 C13.41147992 0.0606234 16.32488692 0.07855898 19.23828125 0.09765625 C19.89828125 4.05765625 20.55828125 8.01765625 21.23828125 12.09765625 C18.54865234 12.18853516 18.54865234 12.18853516 15.8046875 12.28125 C13.47004301 12.36563474 11.13540806 12.45028376 8.80078125 12.53515625 C7.61677734 12.57447266 6.43277344 12.61378906 5.21289062 12.65429688 C4.08818359 12.69619141 2.96347656 12.73808594 1.8046875 12.78125 C0.76256104 12.81790771 -0.27956543 12.85456543 -1.35327148 12.89233398 C-3.71170135 12.83280966 -3.71170135 12.83280966 -4.76171875 14.09765625 C-4.92838542 16.59765625 -4.92838542 16.59765625 -4.76171875 19.09765625 C-3.22746069 20.63191431 -1.83858255 20.22358548 0.30004883 20.22463989 C1.17505035 20.22745972 2.05005188 20.23027954 2.9515686 20.23318481 C3.91887909 20.23116058 4.88618958 20.22913635 5.8828125 20.22705078 C7.40217911 20.22967926 7.40217911 20.22967926 8.95223999 20.23236084 C12.31843756 20.23678147 15.68458309 20.23384062 19.05078125 20.23046875 C21.37866221 20.23114173 23.70654311 20.2321117 26.03442383 20.23336792 C30.92041694 20.23484518 35.80639181 20.23268943 40.69238281 20.22802734 C46.97100781 20.22233005 53.24959007 20.2256089 59.5282135 20.23159981 C64.33728358 20.23520466 69.14634344 20.23406718 73.95541382 20.23147202 C76.27118942 20.23080254 78.58696594 20.23163189 80.90274048 20.23395157 C84.13310216 20.23647686 87.36339358 20.23263924 90.59375 20.22705078 C92.04471573 20.23008713 92.04471573 20.23008713 93.5249939 20.23318481 C94.83749619 20.22895508 94.83749619 20.22895508 96.17651367 20.22463989 C96.94122482 20.22426287 97.70593597 20.22388584 98.49382019 20.22349739 C100.26725168 20.28681827 100.26725168 20.28681827 101.23828125 19.09765625 C101.40494792 16.59765625 101.40494792 16.59765625 101.23828125 14.09765625 C99.4932151 12.3525901 97.04788982 12.86482841 94.671875 12.78125 C92.98481445 12.7184082 92.98481445 12.7184082 91.26367188 12.65429688 C90.07966797 12.61498047 88.89566406 12.57566406 87.67578125 12.53515625 C86.48791016 12.49197266 85.30003906 12.44878906 84.07617188 12.40429688 C81.13035928 12.29782172 78.18433623 12.19719944 75.23828125 12.09765625 C74.24828125 6.15765625 74.24828125 6.15765625 73.23828125 0.09765625 C77.25837582 0.02309676 81.27819858 -0.03113733 85.29882812 -0.06713867 C86.66445941 -0.08215803 88.03004301 -0.10257983 89.39550781 -0.12866211 C91.3663203 -0.16534512 93.33749533 -0.18052926 95.30859375 -0.1953125 C96.49211426 -0.21102295 97.67563477 -0.2267334 98.89501953 -0.24291992 C103.27633265 0.20340196 106.64784087 1.61299338 109.8828125 4.6328125 C113.85238055 9.8237861 114.71275277 12.70111944 114.64453125 19.19921875 C113.98978928 23.87055088 111.84325152 27.10644804 108.23828125 30.09765625 C102.33347314 33.23140601 97.38114462 33.54280636 90.76416016 33.53344727 C89.21886375 33.54856102 89.21886375 33.54856102 87.64234924 33.5639801 C84.24973588 33.59238774 80.85756852 33.59833292 77.46484375 33.6015625 C75.09744079 33.61120793 72.73003962 33.62130073 70.36264038 33.63182068 C65.40480403 33.64976361 60.44712434 33.65534351 55.48925781 33.65356445 C49.14841683 33.65325957 42.80858353 33.69422923 36.46798134 33.74588108 C31.5796348 33.77929815 26.69153057 33.78532039 21.80308151 33.78373528 C19.46597187 33.78726654 17.12885537 33.80048643 14.79185867 33.82373238 C11.51759206 33.85325515 8.24549585 33.84445534 4.97119141 33.82641602 C3.53543007 33.8517038 3.53543007 33.8517038 2.07066345 33.87750244 C-4.93374024 33.77984837 -9.47564687 31.70175584 -14.76171875 27.09765625 C-17.75260548 23.01917435 -18.29650223 19.2868103 -18.11328125 14.33984375 C-17.33821797 9.39666238 -14.85483406 6.11078752 -11.19921875 2.72265625 C-7.37137923 0.17076324 -4.49483619 -0.02281643 0 0 Z " fill="#FDFCF9" transform="translate(214.76171875,205.90234375)"/>
<path d="M0 0 C-1.83798425 11.12706455 -4.07101113 22.09819296 -6.67410278 33.07052612 C-7.67317763 37.28521265 -8.65595689 41.50367577 -9.63671875 45.72265625 C-9.83490707 46.57509415 -10.0330954 47.42753204 -10.23728943 48.30580139 C-12.28547651 57.16045072 -14.19279734 66.04367224 -16.0625 74.9375 C-16.21424683 75.65921387 -16.36599365 76.38092773 -16.52233887 77.12451172 C-17.35322374 81.0819738 -18.17905705 85.04046423 -19 89 C-21.26176028 85.19752088 -21.97471898 81.07142982 -22.84765625 76.79296875 C-23.02029999 75.97157913 -23.19294373 75.15018951 -23.37081909 74.3039093 C-23.74403418 72.52744905 -24.11496246 70.75050716 -24.4838562 68.97314453 C-25.46844259 64.23325501 -26.47151046 59.49730517 -27.4765625 54.76171875 C-27.68274704 53.7896347 -27.88893158 52.81755066 -28.10136414 51.81600952 C-30.61032191 40.04864334 -33.33712576 28.33248339 -36.08032227 16.61791992 C-37.83874595 9.0993919 -39.55109811 1.58587378 -41 -6 C-27.23742087 -9.86246395 -12.00650173 -7.29273642 0 0 Z " fill="#FCC32E" transform="translate(283,7)"/>
<path d="M0 0 C50.16 0 100.32 0 152 0 C152 3.63 152 7.26 152 11 C101.84 11 51.68 11 0 11 C0 7.37 0 3.74 0 0 Z " fill="#BDC2CC" transform="translate(261,330)"/>
<path d="M0 0 C24.53794266 0 24.53794266 0 36.00390625 10.87890625 C38 13 38 13 40 16 C39.44572435 22.86449075 32.00463674 29.28837926 27.1875 33.6875 C20.07901808 39.59729674 9.65670123 48 0 48 C0 32.16 0 16.32 0 0 Z " fill="#1A5261" transform="translate(176,375)"/>
<path d="M0 0 C29.04 0 58.08 0 88 0 C88 4.95 88 9.9 88 15 C58.96 15 29.92 15 0 15 C0 10.05 0 5.1 0 0 Z " fill="#BCC1CB" transform="translate(331,414)"/>
<path d="M0 0 C0 15.51 0 31.02 0 47 C-13.89611706 45.01484042 -25.98145187 35.59793854 -35 25 C-36.80325651 22.40495828 -38.44868537 19.75233242 -40 17 C-30.54613632 1.64245774 -17.47803251 0 0 0 Z " fill="#164F5F" transform="translate(133,375)"/>
<path d="M0 0 C37.62 0 75.24 0 114 0 C114 3.63 114 7.26 114 11 C76.38 11 38.76 11 0 11 C0 7.37 0 3.74 0 0 Z " fill="#BCC1CB" transform="translate(261,366)"/>
<path d="M0 0 C37.62 0 75.24 0 114 0 C114 3.63 114 7.26 114 11 C76.38 11 38.76 11 0 11 C0 7.37 0 3.74 0 0 Z " fill="#BDC2CC" transform="translate(261,295)"/>
<path d="M0 0 C6.71001459 3.76542566 10.65663675 10.06753807 14.94921875 16.25390625 C16.6985107 18.47214731 16.6985107 18.47214731 19.57421875 18.50390625 C20.31671875 18.40078125 21.05921875 18.29765625 21.82421875 18.19140625 C20.50193446 23.87722868 18.42166573 25.90751555 13.82421875 29.19140625 C6.58224834 31.60539639 -1.88199406 31.30759544 -8.73828125 27.94140625 C-18.29195184 22.35666613 -18.29195184 22.35666613 -20.17578125 16.19140625 C-20.83578125 16.19140625 -21.49578125 16.19140625 -22.17578125 16.19140625 C-22.50578125 17.18140625 -22.83578125 18.17140625 -23.17578125 19.19140625 C-26.0965793 21.26671012 -27.55124856 22.19140625 -31.17578125 22.19140625 C-31.83578125 25.16140625 -32.49578125 28.13140625 -33.17578125 31.19140625 C-36.75062953 26.68398886 -37.53053055 23.12682121 -37.45703125 17.4765625 C-36.89124431 12.87954363 -34.36531469 10.18268412 -30.92578125 7.31640625 C-27.15594148 5.77419907 -24.23230253 5.98514246 -20.17578125 6.19140625 C-19.86640625 5.29421875 -19.86640625 5.29421875 -19.55078125 4.37890625 C-15.52889338 -2.01955173 -6.55325651 -2.43541131 0 0 Z " fill="#1A5160" transform="translate(166.17578125,289.80859375)"/>
<path d="M0 0 C0.87493103 -0.00563965 1.74986206 -0.0112793 2.65130615 -0.01708984 C4.0945224 -0.01101715 4.0945224 -0.01101715 5.56689453 -0.00482178 C7.08407074 -0.01007874 7.08407074 -0.01007874 8.63189697 -0.01544189 C11.9879027 -0.02427165 15.34369902 -0.01840562 18.69970703 -0.01165771 C21.02376343 -0.01300401 23.34781956 -0.01494423 25.671875 -0.01745605 C30.54771602 -0.02040901 35.42348387 -0.01610415 40.29931641 -0.0067749 C46.56104354 0.00461967 52.82259923 -0.00193888 59.08432007 -0.01391983 C63.88486023 -0.02113379 68.68535951 -0.01885263 73.48590088 -0.01366425 C75.79526795 -0.01232646 78.10463868 -0.01397993 80.41400146 -0.01862335 C83.63694142 -0.02368094 86.85960058 -0.01598907 90.08251953 -0.00482178 C91.0446637 -0.00887024 92.00680786 -0.0129187 92.99810791 -0.01708984 C94.31050446 -0.00863037 94.31050446 -0.00863037 95.64941406 0 C96.4119046 0.00075405 97.17439514 0.0015081 97.95999146 0.002285 C99.82470703 0.25396729 99.82470703 0.25396729 101.82470703 2.25396729 C102.07470703 4.75396729 102.07470703 4.75396729 101.82470703 7.25396729 C99.42691323 9.65176109 98.91630882 9.50470383 95.64941406 9.50793457 C94.33701752 9.51639404 94.33701752 9.51639404 92.99810791 9.52502441 C92.03596375 9.52097595 91.07381958 9.51692749 90.08251953 9.51275635 C88.56534332 9.51801331 88.56534332 9.51801331 87.01751709 9.52337646 C83.66151136 9.53220622 80.30571504 9.52634019 76.94970703 9.51959229 C74.62565063 9.52093858 72.3015945 9.5228788 69.97753906 9.52539062 C65.10169804 9.52834358 60.22593019 9.52403872 55.35009766 9.51470947 C49.08837053 9.5033149 42.82681483 9.50987345 36.56509399 9.5218544 C31.76455383 9.52906836 26.96405456 9.5267872 22.16351318 9.52159882 C19.85414612 9.52026103 17.54477538 9.5219145 15.2354126 9.52655792 C12.01247264 9.53161551 8.78981348 9.52392364 5.56689453 9.51275635 C4.12367828 9.51882904 4.12367828 9.51882904 2.65130615 9.52502441 C1.77637512 9.51938477 0.90144409 9.51374512 0 9.50793457 C-0.76249054 9.50718052 -1.52498108 9.50642647 -2.31057739 9.50564957 C-4.17529297 9.25396729 -4.17529297 9.25396729 -6.17529297 7.25396729 C-6.42529297 4.75396729 -6.42529297 4.75396729 -6.17529297 2.25396729 C-3.77749916 -0.14382652 -3.26689476 0.00323074 0 0 Z " fill="#FFC42E" transform="translate(215.17529296875,217.74603271484375)"/>
<path d="M0 0 C1.875 0.125 1.875 0.125 4 1 C5.60239204 5.00286689 6.42204576 8.92852177 7.03515625 13.18359375 C7.2043457 14.35245117 7.37353516 15.52130859 7.54785156 16.72558594 C7.80260254 18.5629834 7.80260254 18.5629834 8.0625 20.4375 C8.2387793 21.68692383 8.41505859 22.93634766 8.59667969 24.22363281 C9.77987034 32.82804575 10.6228505 41.32556152 11 50 C5.06 50 -0.88 50 -7 50 C-6.58312652 38.9528528 -5.49149903 28.08033254 -4.0625 17.125 C-3.97713989 16.45039734 -3.89177979 15.77579468 -3.80383301 15.08074951 C-3.55637036 13.13863384 -3.29599138 11.19817743 -3.03515625 9.2578125 C-2.8844165 8.1248877 -2.73367676 6.99196289 -2.57836914 5.82470703 C-2 3 -2 3 0 0 Z " fill="#FE5A6D" transform="translate(153,376)"/>
<path d="M0 0 C0.825 0.48726563 1.65 0.97453125 2.5 1.4765625 C6.45713283 3.19897523 9.76818313 3.44659089 14 3.375 C14.68578125 3.38660156 15.3715625 3.39820313 16.078125 3.41015625 C20.77998421 3.38323721 23.97076417 2.37976741 28 0 C29.1577506 3.47325181 29.06866652 6.36067448 29 10 C26.78268064 11.39820138 24.55461846 12.76763358 22.3125 14.125 C21.68666016 14.52332031 21.06082031 14.92164063 20.41601562 15.33203125 C15.69387839 18.15047965 15.69387839 18.15047965 12.40625 17.4375 C11.6121875 16.963125 10.818125 16.48875 10 16 C9.04480469 15.50242187 8.08960938 15.00484375 7.10546875 14.4921875 C6.14253906 13.95851563 5.17960938 13.42484375 4.1875 12.875 C2.72376953 12.06675781 2.72376953 12.06675781 1.23046875 11.2421875 C0.49441406 10.83226562 -0.24164063 10.42234375 -1 10 C-1.125 2.25 -1.125 2.25 0 0 Z " fill="#DFAA6C" transform="translate(141,358)"/>
<path d="M0 0 C0 6.27 0 12.54 0 19 C-4.7063922 16.6468039 -4.7063922 16.6468039 -6 13 C-6.50909932 9.60779088 -6.59019568 6.38494581 -6 3 C-2.55882353 0 -2.55882353 0 0 0 Z " fill="#F6BB78" transform="translate(132,319)"/>
<path d="M0 0 C3.69230769 0.69230769 3.69230769 0.69230769 5 2 C5.85669992 8.54462564 4.67573519 12.60126393 1 18 C0.34 18 -0.32 18 -1 18 C-1.02684312 15.18743719 -1.04676188 12.37512759 -1.0625 9.5625 C-1.07087891 8.76005859 -1.07925781 7.95761719 -1.08789062 7.13085938 C-1.0965143 5.08704779 -1.0522815 3.04316098 -1 1 C-0.67 0.67 -0.34 0.34 0 0 Z " fill="#F7BB77" transform="translate(179,320)"/>
<path d="M0 0 C0.66 0.33 1.32 0.66 2 1 C-7.41002278 11.55808656 -7.41002278 11.55808656 -12 16 C-14.125 11.375 -14.125 11.375 -13 8 C-12.67 9.32 -12.34 10.64 -12 12 C-11.34 12 -10.68 12 -10 12 C-9.75507813 11.42765625 -9.51015625 10.8553125 -9.2578125 10.265625 C-7.78889901 7.61975598 -6.04651756 5.85146861 -3.875 3.75 C-3.15054688 3.04359375 -2.42609375 2.3371875 -1.6796875 1.609375 C-1.12539062 1.07828125 -0.57109375 0.5471875 0 0 Z " fill="#EBE9E9" transform="translate(151,377)"/>
<path d="M0 0 C3.85756246 1.54126354 5.94276149 3.94518267 8.625 7.0625 C11.43092091 10.51651125 11.43092091 10.51651125 15 13 C15.33 12.34 15.66 11.68 16 11 C15.67 12.98 15.34 14.96 15 17 C10.30435607 13.68542782 7.27530896 9.63720719 4 5 C3.34 5.66 2.68 6.32 2 7 C1.34 4.69 0.68 2.38 0 0 Z " fill="#EBE2E3" transform="translate(156,376)"/>
</svg>
